<?xml version="1.0"?>
<svg version="1.1" xmlns="http://www.w3.org/2000/svg" width="101" height="39" style="border: dashed 2px #aaa"><path fill="#32edda" d="M15.80419921875,24.70751953125q0-2.267578125,0.125244140625-4.482421875t0.309814453125-4.482421875q0.052734375-0.59326171875,0.06591796875-1.14697265625t0.125244140625-0.968994140625t0.3955078125-0.6591796875t0.876708984375-0.243896484375q0.38232421875,0,0.797607421875,0.1318359375t0.415283203125,0.61962890625q0,1.83251953125-0.151611328125,3.605712890625t-0.204345703125,3.526611328125q1.43701171875-1.62158203125,3.07177734375-3.025634765625t3.46728515625-2.775146484375q0.263671875-0.1845703125,0.67236328125-0.19775390625q0.1318359375,0,0.230712890625,0.01318359375t0.204345703125,0.03955078125q0.1318359375,0.052734375,0.270263671875,0.125244140625t0.138427734375,0.204345703125q0,0.10546875-0.11865234375,0.1845703125q-1.37109375,1.107421875-2.709228515625,2.25439453125t-2.551025390625,2.4521484375q0.158203125,0.30322265625,0.270263671875,0.56689453125t0.243896484375,0.56689453125q1.107421875,2.62353515625,1.891845703125,5.372314453125t1.667724609375,5.451416015625q0.0791015625,0.30322265625,0.230712890625,0.626220703125t0.283447265625,0.64599609375t0.230712890625,0.6064453125t0.098876953125,0.468017578125q0,0.2373046875-0.151611328125,0.375732421875t-0.349365234375,0.217529296875t-0.428466796875,0.10546875t-0.428466796875,0.0263671875q-0.46142578125,0-0.823974609375-0.1318359375t-0.573486328125-0.59326171875q-0.9755859375-3.111328125-1.878662109375-6.22265625t-1.825927734375-6.275390625q-0.30322265625,0.30322265625-0.6064453125,0.758056640625t-0.5537109375,0.837158203125q0,1.9775390625,0.09228515625,3.9287109375t0.31640625,3.9287109375q0.052734375,0.56689453125,0.177978515625,1.1337890625t0.125244140625,1.16015625q0,0.43505859375-0.4482421875,0.6064453125t-0.98876953125,0.17138671875q-0.59326171875,0-0.889892578125-0.11865234375t-0.421875-0.309814453125t-0.151611328125-0.421875t-0.0791015625-0.441650390625q-0.30322265625-2.0830078125-0.38232421875-4.119873046875t-0.0791015625-4.093505859375z M29.313032226563,27.76611328125q0-1.212890625,0.283447265625-2.379638671875t0.481201171875-2.326904296875q0.052734375-0.30322265625,0.415283203125-0.375732421875t0.613037109375-0.072509765625q0.43505859375,0,0.69873046875,0.1318359375q0.10546875,0.052734375,0.19775390625,0.11865234375t0.09228515625,0.17138671875q0,1.1337890625-0.270263671875,2.21484375t-0.270263671875,2.2939453125q0,0.40869140625,0.059326171875,0.771240234375t0.112060546875,0.718505859375l0.0791015625,0.38232421875q0,0.10546875,0.01318359375,0.1845703125t0.03955078125,0.1845703125q0,0.2373046875-0.336181640625,0.322998046875t-0.586669921875,0.085693359375q-0.38232421875,0-0.705322265625-0.151611328125t-0.507568359375-0.520751953125l-0.1845703125-0.38232421875q-0.158203125-0.30322265625-0.158203125-0.678955078125t-0.06591796875-0.692138671875z M30.156782226563,19.82958984375l0-0.25048828125q0-0.61962890625,0.309814453125-1.107421875t0.929443359375-0.48779296875q0.0791015625,0,0.151611328125,0.01318359375t0.151611328125,0.01318359375q0.158203125,0.0263671875,0.415283203125,0.125244140625t0.257080078125,0.309814453125l0,0.0263671875q-0.052734375,0.10546875-0.06591796875,0.217529296875t-0.06591796875,0.191162109375l0.0263671875-0.0263671875q-0.158203125,0.40869140625-0.257080078125,0.6591796875t-0.217529296875,0.402099609375t-0.296630859375,0.217529296875t-0.507568359375,0.06591796875q-0.052734375,0-0.1845703125-0.01318359375t-0.283447265625-0.052734375t-0.257080078125-0.10546875t-0.10546875-0.19775390625z M35.069912109375,24.68115234375q0-0.54052734375,0.31640625-0.929443359375t0.771240234375-0.6328125t0.995361328125-0.362548828125t1.001953125-0.11865234375q0.35595703125,0,0.94921875,0.10546875t1.16015625,0.31640625t0.982177734375,0.5537109375t0.415283203125,0.80419921875q0,0.2109375-0.158203125,0.375732421875t-0.32958984375,0.164794921875q-0.35595703125,0-0.64599609375-0.230712890625t-0.599853515625-0.48779296875t-0.678955078125-0.48779296875t-0.83056640625-0.230712890625t-0.837158203125,0.296630859375t-0.375732421875,0.784423828125q0,0.80419921875,0.56689453125,1.575439453125t1.245849609375,1.62158203125t1.245849609375,1.786376953125t0.56689453125,2.06982421875q0,0.48779296875-0.204345703125,0.823974609375t-0.54052734375,0.547119140625t-0.758056640625,0.322998046875t-0.8173828125,0.112060546875q-0.43505859375,0-1.01513671875-0.204345703125t-1.09423828125-0.54052734375t-0.863525390625-0.784423828125t-0.349365234375-0.93603515625q0-0.2373046875,0.336181640625-0.30322265625t0.494384765625-0.06591796875q0.0791015625,0,0.243896484375,0.052734375t0.322998046875,0.11865234375t0.283447265625,0.14501953125t0.098876953125,0.17138671875q0.1318359375,0.158203125,0.402099609375,0.468017578125t0.54052734375,0.5009765625t0.474609375,0.138427734375t0.204345703125-0.59326171875q0-1.0283203125-0.5537109375-1.891845703125t-1.206298828125-1.6875t-1.206298828125-1.634765625t-0.5537109375-1.733642578125z M44.359995117188,29.51953125l0-1.2392578125q0-0.67236328125,0.032958984375-1.905029296875t0.085693359375-2.70263671875t0.14501953125-3.065185546875t0.2109375-3.012451171875t0.283447265625-2.537841796875t0.375732421875-1.6611328125q0.1318359375-0.30322265625,0.43505859375-0.38232421875t0.59326171875-0.0791015625q0.46142578125,0,0.810791015625,0.204345703125t0.349365234375,0.744873046875l-0.2373046875,0.263671875q-0.46142578125,3.04541015625-0.59326171875,6.1171875t-0.1845703125,6.1435546875q0.32958984375-0.51416015625,0.744873046875-1.008544921875t0.9228515625-0.876708984375t1.09423828125-0.613037109375t1.285400390625-0.230712890625q0.896484375,0,1.483154296875,0.54052734375t0.968994140625,1.404052734375t0.56689453125,1.931396484375t0.283447265625,2.1357421875t0.138427734375,2.023681640625t0.11865234375,1.588623046875q-0.25048828125,0.3427734375-0.73828125,0.3427734375l-0.03955078125,0q-0.2109375,0-0.46142578125-0.052734375t-0.32958984375-0.263671875l0.0263671875,0.0263671875q-0.1845703125-0.40869140625-0.25048828125-1.179931640625t-0.10546875-1.70068359375t-0.138427734375-1.905029296875t-0.296630859375-1.7666015625t-0.580078125-1.30517578125t-1.0283203125-0.54052734375l-0.0791015625,0q-0.77783203125,0-1.30517578125,0.474609375q-0.5537109375,0.5009765625-0.896484375,1.318359375t-0.52734375,1.8193359375t-0.283447265625,1.931396484375t-0.151611328125,1.6875t-0.1318359375,1.114013671875q-0.0791015625,0.30322265625-0.468017578125,0.402099609375t-0.665771484375,0.098876953125q-0.64599609375,0-1.0546875-0.369140625q-0.30322265625-0.72509765625-0.35595703125-1.80615234375t-0.052734375-2.109375z M56.97234375,28.08251953125q0-0.896484375,0.243896484375-1.72705078125t0.731689453125-1.483154296875t1.219482421875-1.04150390625t1.694091796875-0.388916015625q0.59326171875,0,1.311767578125,0.177978515625t1.351318359375,0.52734375t1.0546875,0.889892578125t0.421875,1.2392578125q0,0.32958984375-0.112060546875,0.5009765625t-0.454833984375,0.17138671875l-0.14501953125-0.0263671875q0.38232421875,1.0283203125,0.6591796875,2.109375t0.54052734375,2.162109375q0.10546875,0.2109375,0.158203125,0.375732421875t0.052734375,0.322998046875q0,0.2109375-0.11865234375,0.349365234375t-0.309814453125,0.204345703125t-0.3955078125,0.09228515625t-0.362548828125,0.0263671875q-0.56689453125,0-0.850341796875-0.19775390625t-0.40869140625-0.54052734375t-0.151611328125-0.771240234375t-0.10546875-0.863525390625q-0.158203125,0.51416015625-0.415283203125,1.001953125t-0.6064453125,0.876708984375t-0.823974609375,0.61962890625t-1.06787109375,0.230712890625q-0.8701171875,0-1.46337890625-0.5009765625t-0.955810546875-1.232666015625t-0.52734375-1.562255859375t-0.164794921875-1.54248046875z M58.8444140625,27.89794921875q0,0.48779296875,0.06591796875,1.0283203125t0.217529296875,1.06787109375t0.388916015625,0.995361328125t0.59326171875,0.823974609375q0.64599609375-0.69873046875,0.955810546875-1.70068359375t0.5537109375-1.931396484375t0.5537109375-1.59521484375t0.955810546875-0.665771484375q0.40869140625,0,0.685546875,0.14501953125q-0.1318359375-0.32958984375-0.43505859375-0.639404296875t-0.678955078125-0.56689453125t-0.77783203125-0.421875t-0.758056640625-0.164794921875q-0.10546875,0-0.243896484375,0.032958984375t-0.217529296875,0.006591796875q-0.54052734375,0.158203125-0.889892578125,0.547119140625t-0.56689453125,0.916259765625t-0.309814453125,1.0810546875t-0.09228515625,1.04150390625z M68.411352539062,28.1484375l0-0.38232421875q0-0.474609375,0.0263671875-0.896484375q0.0263671875-0.59326171875,0.0263671875-0.9755859375q0-0.2109375,0.0263671875-0.481201171875t0.1318359375-0.428466796875q0.1318359375-0.1318359375,0.309814453125-0.270263671875t0.388916015625-0.138427734375q0.67236328125,0,1.0546875,0.151611328125t0.40869140625,0.626220703125l0.052734375,0.40869140625q0.2373046875-0.56689453125,0.6328125-1.404052734375t0.916259765625-1.59521484375t1.17333984375-1.2919921875t1.377685546875-0.533935546875q0.67236328125,0,1.107421875,0.6328125t0.692138671875,1.614990234375t0.362548828125,2.1884765625t0.14501953125,2.366455078125t0.052734375,2.115966796875t0.09228515625,1.443603515625q0.052734375,0.40869140625,0.177978515625,0.863525390625t0.125244140625,0.837158203125q0,0.10546875-0.151611328125,0.204345703125t-0.322998046875,0.164794921875t-0.349365234375,0.10546875t-0.257080078125,0.03955078125q-0.51416015625,0-0.731689453125-0.771240234375t-0.270263671875-1.931396484375t-0.052734375-2.511474609375t-0.09228515625-2.511474609375t-0.375732421875-1.931396484375t-0.903076171875-0.797607421875q-0.56689453125,0-1.17333984375,0.731689453125t-1.04150390625,1.944580078125q-0.421875,1.212890625-0.580078125,2.75537109375q-0.052734375,0.48779296875-0.052734375,0.9755859375q0,1.06787109375,0.22412109375,2.1357421875q0.0263671875,0.1845703125-0.151611328125,0.27685546875t-0.441650390625,0.14501953125t-0.533935546875,0.06591796875t-0.415283203125,0.01318359375q-0.51416015625,0-0.823974609375-0.362548828125t-0.481201171875-0.929443359375t-0.230712890625-1.272216796875t-0.072509765625-1.390869140625z"/><path fill="#" d=""/></svg>
